<!-- Generated by IcoMoon.io -->
<svg version="1.1" xmlns="http://www.w3.org/2000/svg" width="32" height="32" viewBox="0 0 32 32">
<title>add-buck</title>
<path d="M29.471 17.502c-0.306-0.415-0.49-0.937-0.49-1.502s0.184-1.087 0.495-1.509l-0.005 0.007 0.784-1.132c1.001-1.437 0.348-3.396-1.306-4.005l-1.306-0.435c-1.021-0.368-1.745-1.311-1.785-2.428l-0-0.005v-1.398c-0.037-1.417-1.194-2.552-2.617-2.552-0.278 0-0.546 0.043-0.798 0.124l0.019-0.005-1.306 0.392c-0.229 0.071-0.492 0.112-0.765 0.112-0.853 0-1.613-0.399-2.104-1.020l-0.004-0.006-0.827-1.088c-0.482-0.637-1.238-1.045-2.090-1.045s-1.608 0.408-2.085 1.038l-0.005 0.007-0.827 1.088c-0.481 0.633-1.234 1.037-2.082 1.037-0.283 0-0.555-0.045-0.81-0.128l0.018 0.005-1.306-0.392c-0.233-0.075-0.501-0.119-0.779-0.119-1.422 0-2.58 1.135-2.616 2.548l-0 0.003v1.393c-0.022 1.128-0.754 2.080-1.767 2.427l-0.018 0.005-1.306 0.435c-1.045 0.368-1.78 1.346-1.78 2.496 0 0.565 0.177 1.088 0.479 1.518l-0.006-0.008 0.784 1.132c0.306 0.415 0.49 0.937 0.49 1.502s-0.184 1.087-0.495 1.509l0.005-0.007-0.784 1.132c-1.001 1.437-0.348 3.396 1.306 4.005l1.306 0.435c1.021 0.368 1.745 1.311 1.785 2.428l0 0.005v1.393c0.037 1.417 1.194 2.552 2.617 2.552 0.278 0 0.546-0.043 0.798-0.124l-0.019 0.005 1.306-0.392c0.229-0.071 0.492-0.112 0.765-0.112 0.853 0 1.613 0.399 2.104 1.020l0.004 0.006 0.827 1.088c0.482 0.637 1.238 1.045 2.090 1.045s1.608-0.408 2.085-1.038l0.005-0.007 0.827-1.088c0.481-0.633 1.234-1.037 2.082-1.037 0.283 0 0.555 0.045 0.81 0.128l-0.018-0.005 1.306 0.392c0.233 0.075 0.501 0.119 0.779 0.119 1.422 0 2.58-1.135 2.616-2.548l0-0.003v-1.383c0.022-1.128 0.754-2.080 1.767-2.427l0.018-0.006 1.306-0.435c1.045-0.368 1.78-1.346 1.78-2.496 0-0.565-0.177-1.088-0.479-1.518l0.006 0.008zM18.804 20.68c-0.51 0.606-1.195 1.050-1.976 1.257l-0.027 0.006c-0.348 0.087-0.479 0.256-0.479 0.61v1.045c0.002 0.014 0.002 0.030 0.002 0.046 0 0.24-0.195 0.435-0.435 0.435-0.016 0-0.032-0.001-0.048-0.003l0.002 0h-1.132c-0.348 0-0.479-0.174-0.479-0.522v-0.784c0-0.566-0.044-0.61-0.566-0.697-0.697-0.128-1.393-0.256-2.003-0.566-0.522-0.256-0.566-0.392-0.392-0.914 0.117-0.483 0.236-0.876 0.375-1.259l-0.026 0.084c0.128-0.435 0.256-0.522 0.697-0.305 0.645 0.33 1.396 0.561 2.191 0.65l0.030 0.003c0.122 0.019 0.264 0.029 0.407 0.029 0.387 0 0.756-0.077 1.092-0.217l-0.019 0.007c0.871-0.392 1.001-1.393 0.256-2.003-0.237-0.192-0.511-0.353-0.806-0.471l-0.021-0.008c-0.784-0.348-1.567-0.61-2.305-1.045-1.175-0.697-1.921-1.654-1.829-3.091 0.087-1.611 1.001-2.612 2.482-3.178 0.61-0.218 0.61-0.218 0.61-0.871v-0.653c0-0.479 0.087-0.566 0.566-0.566h0.435c1.001 0 1.001 0 1.045 1.001 0 0.74 0 0.74 0.74 0.827 0.587 0.096 1.114 0.263 1.604 0.494l-0.036-0.015c0.256 0.128 0.392 0.305 0.305 0.61l-0.392 1.306c-0.128 0.392-0.256 0.479-0.653 0.256-0.784-0.392-1.611-0.522-2.525-0.479-0.008-0-0.018-0-0.027-0-0.226 0-0.441 0.047-0.636 0.132l0.010-0.004c-0.784 0.348-0.871 1.175-0.218 1.698 0.305 0.256 0.697 0.435 1.088 0.61 0.773 0.272 1.434 0.58 2.059 0.945l-0.056-0.030c2.005 1.32 2.528 3.889 1.091 5.63z"></path>
</svg>
