<?xml version="1.0" encoding="utf-8"?>
<!-- Generator: Adobe Illustrator 21.0.0, SVG Export Plug-In . SVG Version: 6.00 Build 0)  -->
<svg version="1.1" id="Layer_1" xmlns="http://www.w3.org/2000/svg" xmlns:xlink="http://www.w3.org/1999/xlink" x="0px" y="0px"
	 viewBox="0 0 32 32" style="enable-background:new 0 0 32 32;" xml:space="preserve">
<style type="text/css">
	.st0{fill:#57BFE3;}
</style>
<title>thumbs-up</title>
<path class="st0" d="M4,25c4.2,1.9,9.3,3,14.2,3c1.6,0,3.2-0.1,4.7-0.3c0.6-0.1,1.4-0.3,1.7-0.6c0.5-0.4,0.8-0.9,0.8-1.6
	c0-0.6-0.3-1.1-0.7-1.5H25c1.1,0,2-0.9,2-2s-0.9-2-2-2h1c1.1,0,2-0.9,2-2s-0.9-2-2-2c1.1,0,2-0.9,2-2s-0.9-2-2-2h-9
	c-0.7,0-1.2-0.6-1.2-1.2l0.6-4.2c0.1-0.2,0.1-0.4,0.1-0.6c0-1.1-0.9-2-2-2c-0.9,0-1.7,0.6-1.9,1.5l-0.1,0.3C11.2,9.9,8.3,13.6,4,16
	L4,25L4,25z"/>
</svg>
