<!-- Generated by IcoMoon.io -->
<svg version="1.1" xmlns="http://www.w3.org/2000/svg" width="32" height="32" viewBox="0 0 32 32">
<title>thumbs-up</title>
<path d="M4 25c4.245 1.925 9.285 3 14.25 3 1.61 0 3.194-0.075 4.741-0.331 0.605-0.099 1.39-0.325 1.73-0.584 0.474-0.366 0.778-0.941 0.778-1.584 0-0.594-0.258-1.134-0.674-1.501h0.174c1.104 0 1.998-0.894 1.998-2s-0.894-2-1.998-2h1c1.104 0 2-0.896 2-2s-0.894-2-1.998-2c1.104 0 2-0.896 2-2s-0.896-2-2-2h-8.97c-0.69 0-1.248-0.56-1.248-1.25l0.629-4.155c0.061-0.189 0.090-0.389 0.090-0.595 0-1.104-0.894-2-1.998-2-0.925 0-1.704 0.63-1.93 1.482l-0.088 0.285c-1.285 4.088-4.194 7.824-8.485 10.234v9z"></path>
</svg>
