<!-- Generated by IcoMoon.io -->
<svg version="1.1" xmlns="http://www.w3.org/2000/svg" width="32" height="32" viewBox="0 0 32 32">
<title>star</title>
<path d="M16 3.2c-0.475 0-0.869 0.32-0.992 0.757l-2.517 7.778h-8.267c-0.571 0-1.024 0.496-1.024 1.070 0 0.352 0.176 0.667 0.442 0.854 0.166 0.112 6.678 4.869 6.678 4.869s-2.501 7.682-2.55 7.803c-0.037 0.112-0.064 0.234-0.064 0.363 0 0.574 0.464 1.040 1.034 1.040 0.219 0 0.422-0.070 0.594-0.187l6.667-4.853c0 0 6.517 4.747 6.666 4.853 0.171 0.117 0.374 0.187 0.594 0.187 0.568 0 1.034-0.47 1.034-1.040 0-0.128-0.029-0.25-0.066-0.363-0.046-0.122-2.547-7.803-2.547-7.803s6.51-4.757 6.678-4.869c0.267-0.187 0.442-0.502 0.442-0.859 0-0.57-0.442-1.066-1.013-1.066h-8.267l-2.528-7.778c-0.123-0.437-0.518-0.757-0.992-0.757z"></path>
</svg>
