<!-- Generated by IcoMoon.io -->
<svg version="1.1" xmlns="http://www.w3.org/2000/svg" width="32" height="32" viewBox="0 0 32 32">
<title>medal</title>
<path d="M8.198 0c-1.434 0-2.598 1.165-2.598 2.6v6.506c0 0.91 0.378 1.736 0.981 2.326l2.829 2.829c-1.938 1.779-3.162 4.341-3.162 7.189 0 5.381 4.368 9.749 9.75 9.749s9.75-4.366 9.75-9.749c0-2.848-1.221-5.41-3.158-7.189l2.827-2.829c0.605-0.59 0.982-1.414 0.982-2.326v-6.506c0-1.435-1.165-2.6-2.602-2.6h-15.6zM15.998 16.248c0.23 0 0.418 0.146 0.482 0.346l1.182 2.906h3.037c0.272 0 0.499 0.294 0.499 0.56 0 0.163-0.078 0.302-0.202 0.387l-2.554 1.738c0 0 0.818 3.088 0.843 3.178 0.019 0.045 0.026 0.099 0.026 0.149 0 0.275-0.221 0.488-0.501 0.488-0.122 0-0.238-0.043-0.322-0.115l-2.493-1.946-2.49 1.946c-0.083 0.072-0.2 0.115-0.325 0.115-0.278 0-0.499-0.213-0.499-0.488 0-0.050 0.005-0.102 0.026-0.149 0.027-0.091 0.859-3.166 0.859-3.166l-2.568-1.75c-0.123-0.085-0.202-0.226-0.202-0.387 0-0.266 0.229-0.56 0.499-0.56h3.034l1.189-2.904c0.064-0.2 0.251-0.346 0.478-0.346zM11.45 4.55v4.55c0 0.714-0.584 1.299-1.301 1.299-0.714 0-1.299-0.584-1.299-1.299v-4.55c0-0.715 0.584-1.299 1.299-1.299 0.717-0.002 1.301 0.582 1.301 1.299zM17.299 4.55v5.848c0 0.717-0.584 1.301-1.301 1.301-0.714 0-1.299-0.584-1.299-1.301v-5.848c0-0.715 0.584-1.299 1.299-1.299 0.717-0.002 1.301 0.582 1.301 1.299zM23.15 4.55v4.55c0 0.714-0.584 1.299-1.301 1.299-0.714 0-1.299-0.584-1.299-1.299v-4.55c0-0.715 0.584-1.299 1.299-1.299 0.717-0.002 1.301 0.582 1.301 1.299z"></path>
</svg>
